# xmcd
#
# Track frame offsets: 
#        150
#        13390
#        26042
#        38502
#        49560
#        61090
#        72040
#        84715
#        96767
#        107010
#        117280
#        130000
#        141457
#        153652
#        164987
#        177915
#        189142
#        202800
#        214610
#        228430
#
# Disc length: 3230 seconds
#
# Revision: 2
# Processed by: cddbd v1.5.2PL0 Copyright (c) Steve Scherf et al.
# Submitted via: ExactAudioCopy v0.99pb3
#
DISCID=110c9c14
DTITLE=Ray Charles - Let's Have A Ball
DYEAR=2000
DGENRE=Blues
TTITLE0=Alone in the city
TTITLE1=Can anyone ask for more
TTITLE2=Rockin Chair Blues
TTITLE3=Let's Have a Ball
TTITLE4=How long, How long Blues
TTITLE5=A Sentimental Blues
TTITLE6=You'll always miss the water (Til the Well runs dry)
TTITLE7=I've had my fun (Going down slow)
TTITLE8=Sitting on the top of the world
TTITLE9=Ain't that fine
TTITLE10=Don't pull all your dreams in one basket
TTITLE11=Ray Charles Blues
TTITLE12=Honey Honey
TTITLE13=She's on the ball
TTITLE14=Baby won't you please come home
TTITLE15=If I give you my love
TTITLE16=This love of mine
TTITLE17=Can't you see me darling
TTITLE18=Someday
TTITLE19=I'm going down to the river
EXTD=YEAR: 2000
EXTT0=
EXTT1=
EXTT2=
EXTT3=
EXTT4=
EXTT5=
EXTT6=
EXTT7=
EXTT8=
EXTT9=
EXTT10=
EXTT11=
EXTT12=
EXTT13=
EXTT14=
EXTT15=
EXTT16=
EXTT17=
EXTT18=
EXTT19=
PLAYORDER=
